<?xml version="1.0" encoding="UTF-8"?>
<svg xmlns="http://www.w3.org/2000/svg" xmlns:xlink="http://www.w3.org/1999/xlink" viewBox="0 0 250.78 235.16">
  <defs>
    <style>
      .cls-1 {
        fill: #252322;
      }

      .cls-2 {
        font-family: OpenSans-ExtraBold, 'Open Sans';
        font-size: 27.04px;
        font-weight: 700;
      }

      .cls-2, .cls-3 {
        fill: #ffec00;
      }

      .cls-4 {
        stroke: #fff;
        stroke-miterlimit: 10;
        stroke-width: 3.79px;
      }

      .cls-4, .cls-5 {
        fill: none;
      }

      .cls-6 {
        fill: #fff;
      }

      .cls-7 {
        clip-path: url(#clippath-1);
      }

      .cls-8 {
        fill: #005484;
      }

      .cls-9 {
        clip-path: url(#clippath);
      }
    </style>
    <clipPath id="clippath">
      <rect class="cls-5" width="250.78" height="235.16"/>
    </clipPath>
    <clipPath id="clippath-1">
      <rect class="cls-5" width="250.78" height="235.16"/>
    </clipPath>
  </defs>
  <g id="Layer_1">
    <g class="cls-9">
      <path class="cls-8" d="M191.53,125.89c0,36.63-29.69,66.33-66.33,66.33s-66.33-29.69-66.33-66.33,29.7-66.33,66.33-66.33,66.33,29.7,66.33,66.33"/>
      <path class="cls-8" d="M125.53,58.92c-11.96,0-23.18,3.16-32.87,8.69.21-.09.36-.16.36-.16,0,0-1.15.91-1.58.88-.34.21-.69.4-1.02.61-.72.45-2.5.91-2.5.91,0,0-.82,1.29-1.4,1.72-.69.5-1.37,1.02-2.04,1.54-.69.54-2.31.93-2.31.93,0,0-1.03,1.88-1.67,2.46-.54.5-1.07,1.01-1.6,1.53-.64.63-2.17,1.33-2.17,1.33,0,0-.65,1.62-1.11,2.15-.44.5-.87,1.01-1.3,1.52-.62.75-2.38,1.77-2.38,1.77,0,0-.5,1.96-1.01,2.7-1.16,1.67-2.24,3.41-3.25,5.19.74-.03,1.61-.47,1.61-.47,0,0-1.16.92-1.58.88-.09,0-.17-.02-.24-.03-5.33,9.56-8.38,20.57-8.38,32.3,0,14.71,4.79,28.29,12.88,39.3l.41-.22,5.12,2.71,2.41-.3.6,1.2,3.01.3.9-1.05,1.05-.3-.3,1.5-1.05,1.96-.6.9,1.2.45,1.65,2.11,4.81,3.16,1.05-.3.9-.15v.6l.3,1.35,1.8.45.9,1.06,5.42-1.2,6.47-.6.3,3.16-2.1,4.66,2.71,1.5.06,2.12c5.28,1.35,10.82,2.07,16.53,2.07,36.69,0,66.43-29.74,66.43-66.44s-29.74-66.43-66.43-66.43M80.96,77.67c-.64.5-1.6,1.9-1.6,1.9,0,0,.66-1.15,1.14-2.23,1.33-.33,2.48-.87,2.48-.87,0,0-1.38.71-2.02,1.21M94.39,68.37c-.61.23-2.45,1.21-2.45,1.21,0,0,1.63-.89,2.38-1.68.97.13,2.06.18,2.06.18,0,0-1.38.06-1.99.29"/>
      <path class="cls-8" d="M74.46,81.73l1.4-.94-.75-1.65s.14-.19.46-.91c.31-.72.7-2.66,1.69-4.39.99-1.73,1.58-2.09,1.76-2.32.18-.23.34-.89.47-1.24.13-.35.38-2.58.58-3.46.21-.89.77-2.53.77-2.53,0,0-.79-.77-.89-1.69-.1-.93.11-1.72.11-1.72,0,0,.46-2.73.44-3.28-.01-.55-.42-4.01-.42-4.01,0,0-.65-3.32-1.15-2.68-.42.52-1.29,1.16-1.73,1.66-.51.58-.01,5.21-.73,5.51-.47.2-.03-.34-.69-.56-1.12-.38-.42-5.53-.46-5.68-.1-.31-.07-.4.06-.63.13-.24,3.1-3.21,3.43-3.37.33-.15.68-.67,1.22-.98.55-.32,2.64-1.11,2.73-1.22.09-.11,0-.31-.08-.49-.08-.17-1.12-1.48-1.19-2.31-.08-.83.11-1.68.46-2.07.36-.39,1.26-.91,2.8-.77,1.54.15,1.94.39,2.01.6.07.21-.39.18-.37.31.02.12.21.62.29.71.08.09.16.16.21.37.05.21.15.75.18.89.03.13.72.85.6.95-.11.1-.37.27-.37.27l-.02.96-.16.02s.21.49.02.66c-.18.17-.74.34-.97.44-.23.11-.37.58-.28.88.09.29.22,1.23.31,1.74.09.5.53,1.25.66,1.56.13.32.3,1.66.3,1.66,0,0,.76-.76.9-.89.14-.13-.04-.57-.03-.92,0-.36-.04-1.59.03-1.7.06-.12.07-.12.19-.04.13.09.47.94.47.94,0,0,.81-.18,1.11.11.29.29.64,1.07.26,1.63-.37.55-2.35,2.66-3.15,3.57-.8.91-1.08,1.63-1.08,1.63,0,0-.11,2.06-.16,2.94-.05.88-.1,1.76-.1,1.76,0,0,2.12.52,4.28,2.08,2.16,1.55,3.21,2.52,3.45,2.88.24.36.44.68.36,1.23-.08.56-1.73,1.86-1.73,1.86,0,0-2.41,2.72-2.29,1.76.12-.96.42-2.94.42-2.94l-5.07-1.79s-.64,2.31-.94,2.77c-.3.46-.66.71-.84,1.01-.18.3-.77,1.4-.91,1.64-.14.24.08.41-.23.95-.31.54-1.08.87-1.48,1.19-.4.32-3.94,6.45-3.94,6.45l.04.29-.24.62-.51,1.15.91-.17-.14,1.5.2.99,1.18,1.69-2.47-.61-1.12-1.53.91-1.86-1.02-.46Z"/>
      <path class="cls-8" d="M150.41,63.54l1.62-1.11-.81,1.72,1.21-.61-.1.81,1.01-.5.2,1.51,1.21-1.21v1.21l.91-.81.1,1.11.61-.6.2,1.11.61-.51.1,1.41.61-.91.51,1.11.51-.81.61,1.21.71-.4.1.81.71-.91-.2,1.11.71-.3v1.01l1.32-.2-.1.91.81-.2-.1.71,1.32.2-.1,1.01,2.53,1.01,1.52,1.92,1.11-.1.3.6,1.01-.1-.3.5.71-.1-.3.81.71-.1-.3.81,1.31-.1-.51.81.71-.2.2.71.61.1-.2.71.91.1-.4.81h1.11v.51l.91-.1.1.71.81.4-.1.4h.6l-.49,1.3,1-1-.27,1.5.77-.28-.3.6s1.41-.3,1.32,0c-.1.3-.61.51-.61.51l.91.4-.4.5h.6l-.1.51,1.77,6.01"/>
      <polyline class="cls-8" points="124.16 59.07 125.19 57.4 125.14 59.3 126.01 58.26 126.24 59.04 126.96 58.17 127.76 59.47 128.38 57.87 128.87 58.98 129.37 57.87 129.92 58.85 130.22 58.05 130.86 58.98 131.21 58.27 131.88 59.53 132.06 58.45 132.97 59.26 133.11 58.32 134.15 59.18 134.64 58.52 135.06 59.22 135.34 58.1 135.6 59.2 136.13 58.64 136.53 59.56 137.65 58.85 137.93 59.72 138.59 59.21 138.78 59.89 140.06 59.55 140.38 60.51 143.1 60.41 145.26 61.55 146.24 61.01 146.76 61.44 147.65 60.94 147.57 61.52 148.18 61.14 148.23 62.01 148.83 61.63 148.89 62.49 150.05 61.87 149.91 62.81 150.48 62.34 150.95 62.9 151.54 62.75 151.39 64.64"/>
      <path class="cls-8" d="M100.82,68.9s.6-9.23,1.35-10.78c.74-1.55,5.12-5.12,5.12-5.12l2.97,2.42s-.94-10.41,0-11.86c.94-1.45,3.5-4.58,3.5-4.58,0,0,9.91,13.1,10.24,14.28.34,1.18-.67,2.73-.27,3.78.4,1.04,4.03,2.43,4.03,2.43l-26.94,9.43Z"/>
      <path class="cls-8" d="M78.68,92.21l-1.83-1.31-.74-1.96-.19-.38-.4-.53s.12-2.09.12-2.24c0-.15-.03-2.09.07-2.5.1-.42.84-3.04.82-3.31-.03-.27-.15-.48-.21-.69-.06-.21-1.96-2.45-2.57-2.96-.62-.5-2.9-2.22-2.98-2.47-.09-.24,0-1.8.01-2.36,0-.56-.24-2.4-.27-2.8-.03-.4.12-1.84.12-2.06.01-.21-.16-.55-.08-.75.08-.2-.18-1.92-.15-1.83.02.09,2.46.69,2.99.52.52-.18,2.33-4.99,2.56-5.21.23-.23.51-.75.51-.75l.36-.74s.26-.47.33-.71c.07-.24-.54-.66-.54-.66l-.28-.26-.4.17-.32.08s-.39.25-.4.43c-.02.18.18.87.18.87,0,0-.24.69-.6,1.04-.35.34-2.24,4.04-2.48,3.86-.24-.19-1.26-.44-1.55-.8-.29-.36-.73-1.31-1.04-1.61-.31-.3-.83-.43-1.25-.45-.43-.02-1.29.28-1.41.16-.11-.12-.39-1.29-.39-1.29,0,0,1.18-.24,1.25-.38.07-.14.06-.26.08-.37.02-.1-.29-1.27-.29-1.27,0,0,.25-.24.23-.37-.02-.13-.35-.29-.49-.41-.14-.11-.16-.53-.16-.53,0,0,.26-.74.26-.81,0-.07.02-.46-.12-.72-.14-.26-.47-.59-.47-.59,0,0,.53.13.65.38.12.25.19.62.19.62,0,0,.06-.68-.07-.88-.14-.2-.35-.41-.64-.49-.28-.07-1.54,0-2.03.03-.49.03-1.48.07-1.97.3-.49.23-.98.98-1.19,1.27-.21.29-.51.96-.65,1.24-.13.27-.25.84-.5,1.07-.24.24-.79.36-1.03.68-.24.31-.77,1.3-.77,1.3,0,0,.72-.76,1.08-1.06.36-.31.72-.44.89-.51.17-.07.78-.94.78-.94,0,0-.61,1.34-.99,1.78-.38.44-1.21.9-1.57,1.37-.36.47-.9.96-1.01,1.38-.11.42.1,1.43.1,1.43,0,0,.28-1.04.51-1.48.23-.44.48-.69.9-1.04.41-.35,1.55-1.01,1.55-1.01,0,0-1.18,1.37-1.42,1.89-.24.53-.41.9-.41,1.3,0,.4.25,1.21.25,1.21l.66-1.17s-.2.35-.18.78c.02.42.31,1.26.31,1.26,0,0-1.93,2.92-2,3.23-.07.31-.18.69-.09.9.09.21,1,1.62,1,1.62l3.09,4.25s.88,1.01,1.04,1.19c.16.19,1.47-.18,1.47-.18,0,0,.05.46.44.81.39.36,1.29.82,1.29.82,0,0-.53,2.32-.61,3.1-.08.78-.04,2.04-.05,2.69-.02.65-.32,1.51-.32,1.51,0,0-.79,1.79-.91,2.68-.12.88-.11,4.28-.11,4.28l-.22.55-.26.59.15.49-.53.67-.18.37-.79.75v.73s1.81,1.25,1.87,1.3c.07.05,1.06,1.26,1.06,1.26l1.4.52.89-.49-.46-1.02-.71-1.53-.12-1.35-.23-.22v-.32s.31-1.31.31-1.31l-.21-.79.46-2.25s.49-2.84.55-3.15c.05-.32,1.04-1.88,1.19-2.38.16-.5.12-.88.28-1.25.16-.37.49-1.05.63-1.36.14-.31.54-1.89.54-1.89,0,0,.98.61,1.52.94.54.33,1.97,1.13,1.97,1.13v.02c.78-.14,1.69-.86,1.69-.86,0,0-1,1.19-1.45,1.24-.18.02-.32.03-.43.01-.23.54-.61,1.51-.64,2.24-.05,1.06.71,4.81.71,4.81l.12.89.03.91-.18.52.1,1.28-.06,1.16,1.83.51s2.62.08,2.68.04c.06-.04,1.11-.75,1.11-.75l-.6-.71ZM64.97,71.69c-.17.52-.29,1.28-.29,1.28,0,0-.5-.12-.78-.18-.28-.06-.58-.15-.92-.4-.34-.25-.57-.67-.86-1.07-.29-.4-1.65-3.69-1.63-4,.02-.3,2.71-2.59,2.71-2.59,0,0,.84.82,1.22,1.48.38.65,1.2,2.38,1.17,3.06-.03.69-.45,1.9-.62,2.42"/>
      <path class="cls-8" d="M162.05,73.25l.87,1.77-1.06,1.46-2.35.58,1.12-1.61.19-.94-.13-1.43.87.16-.49-1.09-.23-.59.04-.27s-3.38-5.83-3.76-6.14c-.38-.31-1.11-.62-1.41-1.13-.3-.51-.09-.68-.22-.91-.13-.23-.69-1.28-.87-1.56-.17-.28-.51-.52-.8-.96-.29-.44-.89-2.64-.89-2.64l-4.83,1.7s.28,1.89.4,2.8c.11.91-2.18-1.68-2.18-1.68,0,0-1.57-1.24-1.64-1.77-.08-.53.11-.83.34-1.18.23-.34,1.23-1.26,3.29-2.74,2.06-1.48,4.08-1.98,4.08-1.98,0,0-.05-.84-.09-1.68-.05-.84-.15-2.8-.15-2.8,0,0-.27-.68-1.03-1.55-.76-.86-2.64-2.87-3-3.4-.35-.53-.03-1.28.25-1.55.28-.27,1.06-.1,1.06-.1,0,0,.33-.81.45-.9.12-.08.13-.08.19.03.06.11.02,1.28.03,1.62,0,.34-.16.75-.03.88.13.13.86.85.86.85,0,0,.16-1.28.29-1.58.12-.3.54-1,.63-1.49.09-.48.21-1.37.3-1.66.08-.28-.05-.74-.27-.84-.22-.1-.75-.25-.93-.42-.17-.17.02-.63.02-.63l-.16-.02-.02-.91s-.25-.16-.35-.25c-.11-.1.55-.77.58-.9.03-.13.12-.64.17-.84.05-.2.13-.27.2-.36.07-.09.26-.56.28-.68.02-.12-.41-.1-.35-.29.06-.2.45-.43,1.91-.57,1.47-.14,2.32.36,2.66.73.34.37.52,1.18.44,1.97-.07.79-1.06,2.04-1.14,2.2-.07.16-.16.36-.07.46.09.1,2.08.86,2.6,1.16.52.3.85.79,1.16.93.32.15,3.14,2.98,3.27,3.21.12.23.16.31.06.6-.04.14.63,5.04-.44,5.41-.63.22-.21.73-.66.54-.68-.29-.21-4.69-.7-5.25-.42-.48-1.25-1.09-1.65-1.58-.48-.6-1.1,2.56-1.1,2.56,0,0-.39,3.3-.4,3.82-.02.52.42,3.12.42,3.12,0,0,.2.75.1,1.64-.1.88-.85,1.61-.85,1.61,0,0,.54,1.57.73,2.41.19.84.43,2.96.55,3.3.13.33.28.96.45,1.18.17.22.74.56,1.68,2.21.94,1.64,1.31,3.49,1.61,4.18.3.69.44.87.44.87l-.71,1.57,1.33.89-.97.43Z"/>
      <path class="cls-8" d="M158.42,80.47s1,.67,1.06.71c.05.04,2.55-.03,2.55-.03l1.75-.49-.06-1.1.09-1.22-.17-.49.03-.87.12-.84s.72-3.57.68-4.58c-.03-.7-.38-1.62-.6-2.13-.11.01-.25,0-.41,0-.43-.05-1.38-1.18-1.38-1.18,0,0,.88.69,1.62.82,0,0-.01-.02-.01-.02,0,0,1.36-.75,1.88-1.07.52-.32,1.45-.9,1.45-.9,0,0,.38,1.51.52,1.8.14.29.45.95.6,1.29.15.35.11.72.26,1.19.15.47,1.09,1.96,1.14,2.26.05.3.52,3,.52,3l.43,2.14-.2.75.29,1.24v.3s-.22.21-.22.21l-.11,1.28-.68,1.46-.43.98.85.47,1.33-.5s.95-1.14,1.01-1.19c.06-.05,1.78-1.24,1.78-1.24v-.69l-.75-.72-.17-.35-.5-.64.14-.46-.24-.56-.21-.53s0-3.23-.1-4.07c-.11-.84-.86-2.55-.86-2.55,0,0-.29-.81-.31-1.43-.01-.62.02-1.82-.05-2.56-.07-.74-.58-2.95-.58-2.95,0,0,.86-.44,1.23-.78.37-.34.42-.78.42-.78,0,0,1.25.36,1.4.18.16-.18.99-1.14.99-1.14l2.94-4.04s.86-1.35.95-1.54c.08-.2-.02-.56-.09-.86-.07-.3-1.91-3.08-1.91-3.08,0,0,.27-.8.3-1.2.02-.41-.17-.74-.17-.74l.63,1.12s.23-.77.24-1.15-.16-.73-.39-1.23c-.23-.5-1.35-1.8-1.35-1.8,0,0,1.09.63,1.48.96.39.33.64.56.85.99.22.42.49,1.41.49,1.41,0,0,.2-.96.09-1.37-.11-.4-.62-.86-.97-1.31-.34-.45-1.14-.89-1.5-1.31-.36-.42-.94-1.7-.94-1.7,0,0,.58.83.75.9.16.07.5.19.85.49.34.29,1.03,1.01,1.03,1.01,0,0-.51-.94-.73-1.24-.23-.3-.75-.42-.98-.65-.24-.23-.35-.76-.48-1.02-.12-.26-.41-.91-.61-1.18-.2-.28-.67-.99-1.13-1.21-.47-.22-1.42-.26-1.88-.29-.46-.03-1.66-.1-1.93-.03-.27.07-.48.27-.61.46-.13.19-.07.83-.07.83,0,0,.07-.35.18-.59.11-.24.62-.36.62-.36,0,0-.31.31-.45.56-.13.25-.12.61-.11.68,0,.07.25.77.25.77,0,0-.02.4-.15.51-.13.11-.45.26-.47.39-.01.12.22.35.22.35,0,0-.3,1.11-.27,1.21.02.1,0,.21.08.35.07.14,1.18.36,1.18.36,0,0-.26,1.11-.37,1.23-.11.11-.94-.17-1.34-.15-.4.02-.9.14-1.19.42-.3.28-.72,1.19-.99,1.53-.28.34-1.25.58-1.47.76-.23.18-2.02-3.34-2.36-3.67-.34-.33-.57-.99-.57-.99,0,0,.19-.66.17-.83-.01-.17-.38-.41-.38-.41l-.3-.07-.38-.17-.27.25s-.58.4-.51.63c.07.23.31.68.31.68l.35.71s.27.49.48.71c.22.21,1.94,4.8,2.44,4.97.5.17,2.82-.4,2.84-.49.03-.09-.21,1.55-.14,1.74.07.19-.09.51-.08.71,0,.2.14,1.57.12,1.96-.02.38-.26,2.14-.26,2.67,0,.53.09,2.01.01,2.25-.08.23-2.25,1.87-2.84,2.35-.59.48-2.39,2.62-2.45,2.81-.06.2-.18.4-.2.65-.02.26.69,2.75.78,3.15.09.4.06,2.24.06,2.38,0,.14.11,2.13.11,2.13l-.39.51-.18.36-.71,1.87-1.74,1.25-.58.68ZM171.46,57.95c-.03-.66.75-2.3,1.12-2.92.36-.62,1.17-1.4,1.17-1.4,0,0,2.56,2.18,2.58,2.47.02.29-1.27,3.43-1.55,3.8-.28.38-.5.78-.82,1.02-.32.24-.61.32-.88.38-.26.06-.74.17-.74.17,0,0-.12-.72-.28-1.22-.16-.5-.57-1.65-.59-2.31"/>
      <path class="cls-8" d="M196.01,58.84c.7.48,1.17,1.19,1.41,2.14l-.41.17c.11.56.03,1.04-.24,1.43l-.19.28c-.27.39-.65.7-1.16.92-.89.16-1.38.3-1.46.42-.22.32-.34.66-.37,1.02.74,1.15,1.16,1.98,1.28,2.5.11,2.15.32,3.32.61,3.52.48,1.7.54,2.81.19,3.32l-.05.08-.43.15c-1.76.16-3.69.27-5.78.34l-.19.28c-.39.52-.68.79-.87.8l-2.66,2.47c-.15,2.32-.38,3.73-.72,4.23-.5,1.39-.62,2.41-.37,3.05,1.16.79,1.94,1.79,2.35,3.01.86,3.28,1.74,5.23,2.64,5.84l.57.29c.13.33.15.62.05.89l-.42.45c-.19.28-.73,1.49-1.61,3.62-.37.55-.82.89-1.34,1.01l-.23-.28c.59-.86.72-2.26.39-4.22.2-.53.14-1.28-.18-2.25-.97-1.99-2.17-3.89-3.63-5.68-1.56-1.47-2.15-2.48-1.77-3.03-.31-2.33-.42-4.84-.34-7.52-.96-.14-2.08-.43-3.36-.87-1.76-1-2.82-1.23-3.19-.69-.23.65-.46,1.15-.69,1.48l-.25.36-.65.83c-3.05,1.97-4.75,3.21-5.09,3.71-.15.41-.3.74-.46.98l-.15.22c-.51.75-1.03,1.04-1.56.86-.15-.1-.38-.44-.7-1.01-.45-.3-.94-.61-1.49-.93-1.1-.75-1.81-1.61-2.11-2.58l.15-.22c.48.11.96.29,1.46.55,2.18.67,3.44.75,3.8.23.31.21,2.07-1.65,5.29-5.57.24-.35.5-.85.79-1.5.19-.16.34-.32.43-.47,2.88-.5,5.67-.67,8.37-.5.35.24,1.31-.6,2.89-2.52-.14-.98-.23-1.94-.28-2.88-.91-1.5-1.27-2.39-1.09-2.65l.29-.13v-.32c-.1-.07-.3-.1-.58-.08l-.22-.15c.1-.15.07-.32-.08-.5.5-.01.77-.05.81-.1l.1-.14-.22-.15.1-.14c.48.11.8.22.96.33l.3.21c.33.64.48,1.27.43,1.88.04,1.24.31,2.04.82,2.39l.1-.14c.05-.07.24-.61.58-1.64l.3-.44c1.4-.82,2.3-1.52,2.7-2.11,1.01.37,1.57.51,1.68.4l.06-.08c.08-.12.18-.38.29-.78-.46-.16-.79-.3-.98-.43-.05-.04-.11-.12-.17-.23.48-.7.64-1.3.5-1.82l.14-.2c.47-.17.76-.34.87-.5.16-.24.44-.91.83-2,.1-.15.68-.15,1.72,0l.17.35c.51.05.9.17,1.15.34l.16.11ZM192.86,70.06c-2.19,1.42-3.58,2.58-4.19,3.47l-.05.08.08.05c2.42-.18,4.11-.57,5.06-1.16.06-.09-.21-.89-.82-2.39l-.08-.06Z"/>
      <path class="cls-1" d="M55.77,108.81h142.89c5.47,0,9.91,4.44,9.91,9.91v18.17c0,5.47-4.44,9.91-9.91,9.91H55.77c-5.47,0-9.91-4.44-9.91-9.91v-18.17c0-5.47,4.44-9.91,9.91-9.91Z"/>
      <path class="cls-4" d="M55.77,108.81h142.89c5.47,0,9.91,4.44,9.91,9.91v18.17c0,5.47-4.44,9.91-9.91,9.91H55.77c-5.47,0-9.91-4.44-9.91-9.91v-18.17c0-5.47,4.44-9.91,9.91-9.91Z"/>
    </g>
    <g class="cls-7">
      <path class="cls-6" d="M61.37,123.35h-3.59c-.08-.4-.12-.82-.12-1.26,0-.41.04-.82.12-1.22h10.12c.08.4.12.81.12,1.22,0,.44-.04.86-.12,1.26h-3.59v11.93c-.24.03-.48.05-.72.07-.24.02-.47.03-.7.03s-.47,0-.73-.02c-.26-.01-.52-.04-.79-.08v-11.93Z"/>
      <path class="cls-6" d="M70.07,120.87c.59-.07,1.14-.12,1.65-.17.51-.05,1.09-.07,1.71-.07.74,0,1.46.07,2.18.2.71.13,1.36.37,1.93.71.57.34,1.04.8,1.39,1.38.35.58.53,1.32.53,2.22,0,.53-.07,1-.2,1.41-.13.41-.3.76-.51,1.07-.21.31-.43.57-.67.79-.24.22-.47.4-.68.53l-.34.22,3.51,6.09c-.27.03-.55.05-.84.08-.29.03-.6.04-.9.04-.51,0-1.01-.04-1.5-.12l-3.77-6.7.48-.24c.19-.09.41-.21.68-.36.27-.15.52-.33.77-.55.25-.22.46-.49.63-.8.17-.31.26-.68.26-1.11,0-.84-.24-1.46-.72-1.86-.48-.39-1.1-.59-1.86-.59-.29,0-.56.02-.8.06v12.17c-.24.03-.48.05-.72.07-.24.02-.47.03-.7.03s-.47,0-.72-.02-.51-.04-.78-.08v-14.41Z"/>
      <path class="cls-6" d="M85.52,120.86c.28-.04.55-.07.8-.09.25-.02.53-.03.84-.03.27,0,.53,0,.78.03.25.02.53.05.84.09l4.51,14.41c-.55.08-1.08.12-1.6.12s-1-.04-1.48-.12l-.8-2.89h-4.77l-.82,2.89c-.48.08-.94.12-1.38.12-.49,0-.98-.04-1.46-.12l4.55-14.41ZM88.73,129.97l-1.66-6.05-1.74,6.05h3.41Z"/>
      <path class="cls-6" d="M94.93,120.87c.49-.08.98-.12,1.46-.12s.97.04,1.48.12v14.41c-.51.08-1,.12-1.46.12-.49,0-.99-.04-1.48-.12v-14.41Z"/>
      <path class="cls-6" d="M100.68,120.87c.49-.08.97-.12,1.42-.12s.96.04,1.46.12v11.89h4.99c.04.23.07.44.08.65.01.21.02.4.02.59,0,.21,0,.42-.02.63-.01.21-.04.42-.08.65h-7.88v-14.41Z"/>
      <path class="cls-6" d="M115.37,120.87c.53-.08,1.05-.12,1.54-.12.52,0,1.04.04,1.54.12l3.31,8.26,3.41-8.26c.41-.08.88-.12,1.38-.12s1,.04,1.46.12l.68,14.41c-.51.08-.99.12-1.44.12s-.9-.04-1.34-.12l-.36-9.78-2.93,6.78c-.19.03-.38.05-.58.07-.2.02-.4.03-.6.03-.17,0-.35,0-.52-.02-.17-.01-.35-.04-.54-.08l-2.73-6.92-.28,9.92c-.43.08-.84.12-1.24.12-.43,0-.87-.04-1.32-.12l.56-14.41Z"/>
      <path class="cls-6" d="M134.7,120.86c.28-.04.55-.07.8-.09.25-.02.53-.03.84-.03.27,0,.53,0,.78.03.25.02.53.05.84.09l4.51,14.41c-.55.08-1.08.12-1.6.12s-1-.04-1.48-.12l-.8-2.89h-4.77l-.82,2.89c-.48.08-.94.12-1.38.12-.49,0-.98-.04-1.46-.12l4.55-14.41ZM137.9,129.97l-1.66-6.05-1.74,6.05h3.41Z"/>
      <path class="cls-6" d="M144.1,120.87c.41-.08.81-.12,1.18-.12.4,0,.81.04,1.24.12l5.57,9.18v-9.18c.48-.08.94-.12,1.38-.12.41,0,.81.04,1.2.12v14.41c-.43.08-.82.12-1.16.12-.38,0-.78-.04-1.22-.12l-5.61-9.16v9.16c-.43.08-.86.12-1.3.12s-.87-.04-1.28-.12v-14.41Z"/>
      <path class="cls-6" d="M157.49,120.87c.49-.08.98-.12,1.46-.12s.97.04,1.48.12v14.41c-.51.08-1,.12-1.46.12-.49,0-.99-.04-1.48-.12v-14.41Z"/>
      <path class="cls-6" d="M166.59,120.86c.28-.04.55-.07.8-.09.25-.02.53-.03.84-.03.27,0,.53,0,.78.03.25.02.53.05.84.09l4.51,14.41c-.55.08-1.08.12-1.6.12s-1-.04-1.48-.12l-.8-2.89h-4.77l-.82,2.89c-.48.08-.94.12-1.38.12-.49,0-.98-.04-1.46-.12l4.55-14.41ZM169.8,129.97l-1.66-6.05-1.74,6.05h3.41Z"/>
      <path class="cls-6" d="M185.03,132.55c.17.38.32.76.43,1.15.11.39.2.79.25,1.19-.69.25-1.32.42-1.87.5-.56.08-1.15.12-1.79.12-1.14,0-2.13-.18-2.99-.55-.85-.37-1.57-.88-2.15-1.54-.58-.66-1.02-1.45-1.31-2.35-.29-.91-.44-1.9-.44-2.97s.15-2.06.46-2.98c.31-.92.75-1.71,1.33-2.38.58-.67,1.3-1.19,2.15-1.56.85-.37,1.81-.56,2.9-.56.64,0,1.23.04,1.78.12.54.08,1.13.25,1.75.5-.03.4-.11.79-.24,1.17-.13.38-.28.76-.44,1.15-.47-.16-.88-.27-1.24-.34-.36-.07-.79-.1-1.28-.1-1.28,0-2.27.42-2.96,1.25-.69.84-1.03,2.08-1.03,3.72,0,3.26,1.38,4.89,4.15,4.89.49,0,.93-.03,1.3-.1.37-.07.79-.18,1.26-.34"/>
      <path class="cls-6" d="M190.52,128.6c-.45-.17-.86-.36-1.22-.57-.36-.21-.67-.45-.92-.74-.25-.29-.45-.63-.59-1.03-.14-.4-.21-.88-.21-1.44,0-.68.12-1.28.35-1.81.23-.52.57-.96.99-1.31.43-.35.94-.62,1.54-.8.6-.18,1.28-.27,2.03-.27.68,0,1.32.06,1.91.18s1.22.29,1.87.52c-.08.77-.29,1.54-.64,2.28-.2-.08-.4-.16-.61-.24-.21-.08-.43-.15-.66-.2-.24-.05-.5-.1-.79-.13-.29-.03-.63-.05-1-.05-.23,0-.46.02-.69.06-.24.04-.45.11-.63.22-.19.11-.34.26-.46.47-.12.21-.18.48-.18.81,0,.27.05.49.14.67.09.18.22.33.38.46.16.13.34.23.54.32.2.09.4.17.6.25l1.2.46c.51.2.97.41,1.38.62.41.21.76.48,1.05.79.29.31.51.7.67,1.14.16.45.24,1,.24,1.65s-.12,1.3-.37,1.86c-.25.56-.61,1.04-1.07,1.44-.47.4-1.05.72-1.74.94-.69.23-1.48.34-2.38.34-.44,0-.84-.01-1.18-.04-.35-.03-.68-.07-.99-.13-.31-.06-.62-.14-.93-.23-.31-.09-.63-.21-.96-.34.04-.39.11-.79.22-1.21.11-.42.23-.85.38-1.27.56.23,1.09.4,1.58.51s1.02.17,1.58.17c.84,0,1.5-.16,1.99-.47.48-.31.72-.79.72-1.43,0-.32-.06-.59-.17-.8-.11-.21-.26-.39-.44-.54-.18-.15-.39-.27-.61-.37-.23-.1-.46-.2-.7-.29l-1.22-.46Z"/>
    </g>
    <text class="cls-2" transform="translate(94.38 175.59)"><tspan x="0" y="0">2025</tspan></text>
  </g>
  <g id="Layer_2">
    <g>
      <path class="cls-3" d="M90.45,95.26l2.44-2.94c1.14.92,2.59,1.57,3.78,1.57,1.29,0,1.84-.42,1.84-1.14,0-.77-.82-1.02-2.19-1.57l-2.02-.85c-1.74-.7-3.26-2.17-3.26-4.5,0-2.76,2.49-5.03,6.02-5.03,1.84,0,3.88.7,5.38,2.17l-2.14,2.69c-1.1-.77-2.04-1.17-3.24-1.17-1.05,0-1.69.37-1.69,1.1,0,.77.92,1.04,2.39,1.62l1.97.77c2.02.8,3.16,2.19,3.16,4.43,0,2.74-2.29,5.18-6.32,5.18-2.04,0-4.38-.75-6.12-2.31Z"/>
      <path class="cls-3" d="M105.51,81.1h4.28v12.59h6.12v3.58h-10.4v-16.18Z"/>
      <path class="cls-3" d="M122.23,81.1h5.18l4.93,16.18h-4.53l-.8-3.43h-4.53l-.8,3.43h-4.38l4.93-16.18ZM123.25,90.54h2.99l-.27-1.12c-.4-1.54-.8-3.51-1.19-5.13h-.1c-.35,1.64-.75,3.58-1.14,5.13l-.27,1.12Z"/>
      <path class="cls-3" d="M134.1,81.1h5.92c3.53,0,6.57,1.29,6.57,5.38s-3.09,5.67-6.47,5.67h-1.74v5.13h-4.28v-16.18ZM139.93,88.77c1.69,0,2.49-.85,2.49-2.29s-.95-1.99-2.59-1.99h-1.44v4.28h1.54Z"/>
      <path class="cls-3" d="M151.96,91.71l-4.88-10.6h4.58l1.2,3.38c.4,1.22.8,2.34,1.22,3.61h.1c.42-1.27.85-2.39,1.27-3.61l1.19-3.38h4.48l-4.88,10.6v5.57h-4.28v-5.57Z"/>
    </g>
  </g>
</svg>