<svg xmlns="http://www.w3.org/2000/svg" viewBox="0 0 676.89 218.65" style="max-height: 26px;"><g id="Layer_2" data-name="Layer 2"><g id="Layer_1-2" data-name="Layer 1"><path fill="#ff0" d="M0 204.5h417.62l45.95-187.11H0V204.5z"></path><path fill="#000d44" d="m514.22 122.43-16.77 82.32h-46.29l47.36-192.84 62.67 108.5L617.8 0l59.08 204.75h-48.05l-22.31-87.7-45.33 101.6-46.97-96.22zM153.44 139.81v25H62.1l46.42-50.5c6.63-7.23 13-17.48 13-27.88 0-7.24-5.13-14.77-13-14.77s-12.36 6.21-12.36 13.89a27.62 27.62 0 0 0 .46 4.83H64.06C65 64.3 81.54 46.67 108.37 46.67c23.82 0 43.87 15.67 43.87 40.39 0 16.28-6.79 25.77-18.39 36.33l-17.64 16.42ZM260.45 108c0 29.54-14.32 61.35-48.24 61.35S164 137.55 164 108s14.47-61.34 48.23-61.34 48.22 31.81 48.22 61.34Zm-67.08-.15c0 11 3.62 35.42 18.84 35.42s18.84-24.42 18.84-35.42-3.61-35.12-18.84-35.12-18.84 24.13-18.84 35.13ZM339.11 51.19h36.63L330.52 105l49.29 59.84h-38.28l-38.14-49.29h-.3v49.29h-29.54V51.19h29.54v46.87h.3Z"></path></g></g></svg>