<svg xmlns="http://www.w3.org/2000/svg" viewBox="0 0 676.89 218.65" style="max-height: 26px;"><g id="Layer_2" data-name="Layer 2"><g id="Layer_1-2" data-name="Layer 1"><path fill="#fc5a00" d="M0 204.5h417.62l45.95-187.11H0V204.5z"></path><path fill="#000D44" d="m514.22 122.43-16.77 82.32h-46.29l47.36-192.84 62.67 108.5L617.8 0l59.08 204.75h-48.05l-22.31-87.7-45.33 101.6-46.97-96.22zM102.72 76.21l-2 13 9.35-.75c23.21-1.81 40.24 17.18 40.24 40.69a39.59 39.59 0 0 1-14.62 30.75c-9 7.24-21.85 9.5-33.16 9.5-13 0-26.07-3.17-37.08-10.25l4.37-27.89c8.74 7.84 19.9 13.12 31.66 13.12 9.34 0 18.08-6.79 18.08-16.73 0-13.72-13.11-19.45-24.87-19.45A51.19 51.19 0 0 0 73 112.83l10-61.64h59.08v25ZM260.67 108c0 29.54-14.32 61.35-48.23 61.35s-48.23-31.8-48.23-61.35 14.47-61.34 48.23-61.34 48.23 31.81 48.23 61.34Zm-67.07-.15c0 11 3.62 35.42 18.84 35.42s18.84-24.42 18.84-35.42-3.62-35.12-18.84-35.12-18.84 24.13-18.84 35.13ZM339.34 51.19H376L330.75 105 380 164.84h-38.25l-38.13-49.29h-.3v49.29h-29.55V51.19h29.55v46.87h.3Z"></path></g></g></svg>